<svg width="54" height="20" viewBox="0 0 54 20" fill="none" xmlns="http://www.w3.org/2000/svg">
<path d="M1.86005 19.6502V18.3579H3.1038V19.6502H3.75841V16.6941H3.1038V17.8572H1.86005V16.6941H1.20544V19.6502H1.86005Z" fill="#333333"/>
<path d="M9.51888 16.6941V18.2933C9.51888 18.7941 9.50252 19.2464 8.86427 19.2464C8.22603 19.2464 8.20967 18.7941 8.20967 18.2933V16.6941H7.5387V18.5518C7.5387 19.3433 8.12784 19.7148 8.86427 19.7148C9.60071 19.7148 10.1899 19.3271 10.1899 18.5518V16.6941H9.51888Z" fill="#333333"/>
<path d="M15.9994 18.5678V19.1655C15.8358 19.214 15.6721 19.2624 15.4267 19.2624C14.8048 19.2624 14.5429 18.8425 14.5429 18.1801C14.5429 17.5178 14.7884 17.0979 15.3612 17.0979C15.754 17.0979 15.9831 17.3402 15.9831 17.5986H16.6377C16.6377 17.0171 16.114 16.6294 15.3121 16.6294C14.6902 16.6294 13.8392 17.0009 13.8392 18.164C13.8392 19.3432 14.6575 19.6986 15.3776 19.6986C15.9994 19.6986 16.4086 19.5694 16.6377 19.4724V18.0671H15.3939V18.5517H15.9994V18.5678Z" fill="#333333"/>
<path d="M46.3405 17.5179C46.3405 16.9202 45.735 16.5971 45.1786 16.5971C44.6222 16.5971 44.0003 16.9363 44.0003 17.5179C44.0003 17.9379 44.3112 18.164 44.7367 18.2932C44.8676 18.3256 45.0967 18.4063 45.2113 18.4386C45.6204 18.5517 45.7677 18.6648 45.7677 18.9071C45.7677 19.2302 45.4404 19.3432 45.2604 19.3432C44.7694 19.3432 44.5894 19.0686 44.5894 18.7294H43.9348C43.9348 19.3917 44.4258 19.7632 45.244 19.7632C45.8823 19.7632 46.455 19.424 46.455 18.8263C46.455 18.3579 46.095 18.0994 45.6368 17.9702C45.4731 17.9217 45.3259 17.8894 45.1622 17.8409C44.8022 17.7279 44.6385 17.6309 44.6385 17.4209C44.6385 17.2109 44.8022 17.0333 45.1458 17.0333C45.5059 17.0333 45.6695 17.2594 45.6695 17.5502H46.3405V17.5179Z" fill="#333333"/>
<path d="M52.7557 17.5179C52.7557 16.9202 52.1501 16.5971 51.5937 16.5971C51.0373 16.5971 50.4154 16.9363 50.4154 17.5179C50.4154 17.9379 50.7264 18.164 51.1519 18.2932C51.2828 18.3256 51.5119 18.4063 51.6265 18.4386C52.0356 18.5517 52.1829 18.6648 52.1829 18.9071C52.1829 19.2302 51.8556 19.3432 51.6756 19.3432C51.1846 19.3432 51.0046 19.0686 51.0046 18.7294H50.35C50.35 19.3917 50.8409 19.7632 51.6592 19.7632C52.2974 19.7632 52.8702 19.424 52.8702 18.8263C52.8702 18.3579 52.5102 18.0994 52.052 17.9702C51.8883 17.9217 51.741 17.8894 51.5774 17.8409C51.2173 17.7279 51.0537 17.6309 51.0537 17.4209C51.0537 17.2109 51.2173 17.0333 51.561 17.0333C51.921 17.0333 52.0847 17.2594 52.0847 17.5502H52.7557V17.5179Z" fill="#333333"/>
<path d="M21.8419 19.7471C22.8729 19.7471 23.3311 19.0686 23.3311 18.1802C23.3311 17.2917 22.8729 16.6133 21.8419 16.6133C20.8109 16.6133 20.3527 17.2917 20.3527 18.1802C20.3527 19.0686 20.8109 19.7471 21.8419 19.7471ZM21.8419 17.0656C22.4965 17.0656 22.6274 17.6471 22.6274 18.164C22.6274 18.681 22.4965 19.2625 21.8419 19.2625C21.1873 19.2625 21.0564 18.681 21.0564 18.164C21.0564 17.6633 21.1873 17.0656 21.8419 17.0656Z" fill="#333333"/>
<path d="M32.1682 19.6825C32.7738 19.6825 33.3302 19.3917 33.3302 18.8425C33.3302 18.3902 32.9701 18.1317 32.6101 18.0994C32.8556 18.0671 33.1829 17.8087 33.1829 17.4371C33.1829 16.904 32.7738 16.6617 32.1355 16.6617H30.8099V19.6825H32.1682V19.6825ZM31.4645 19.214V18.3417H32.0537C32.3483 18.3417 32.5937 18.4225 32.5937 18.7617C32.5937 19.0848 32.3319 19.1979 32.0537 19.1979H31.4645V19.214ZM31.4645 17.9056V17.1302H32.0701C32.3319 17.1302 32.4955 17.3079 32.4955 17.5179C32.4955 17.744 32.2828 17.8894 32.0373 17.8894H31.4645V17.9056Z" fill="#333333"/>
<path d="M38.6162 19.7632C39.6472 19.7632 40.1218 19.0686 40.1218 18.1802C40.1218 17.2756 39.6472 16.5971 38.6162 16.5971C37.5852 16.5971 37.1106 17.2917 37.1106 18.1802C37.1106 19.0686 37.5852 19.7632 38.6162 19.7632ZM38.6162 17.0494C39.2872 17.0494 39.4181 17.6309 39.4181 18.164C39.4181 18.6971 39.2872 19.2786 38.6162 19.2786C37.9452 19.2786 37.8143 18.6971 37.8143 18.164C37.8143 17.6471 37.9452 17.0494 38.6162 17.0494Z" fill="#333333"/>
<path d="M41.3655 9.78023C41.4964 11.2987 40.8255 14.1417 36.456 14.3194C34.5249 14.4002 32.1028 13.8025 31.1373 13.3664V9.71562H31.6119C31.7101 10.1679 32.6265 13.544 35.8177 13.7056C37.667 13.7863 39.0744 13.0271 39.1071 11.5087C39.1562 9.74792 37.176 9.13408 35.3922 8.43947C33.3793 7.64794 31.4319 6.85641 31.1537 4.70797C30.8591 2.188 33.1993 0.475704 35.8996 0.58878C37.3888 0.653395 38.878 1.00878 40.0236 1.46108V4.54643H39.549C39.2708 2.86645 38.2561 1.28339 35.9323 1.13801C34.574 1.05724 33.3466 1.558 33.3466 3.01183C33.3466 4.46567 35.8014 5.06335 37.5852 5.75796C39.3853 6.46872 41.1528 7.43795 41.3655 9.78023Z" fill="#333333"/>
<path d="M53.5576 9.78023C53.6885 11.2987 53.0175 14.1417 48.648 14.3194C46.7169 14.4002 44.2949 13.8025 43.3293 13.3664V9.71562H43.8039C43.9021 10.1679 44.8186 13.544 48.0098 13.7056C49.859 13.7863 51.2664 13.0271 51.2992 11.5087C51.3483 9.74792 49.3681 9.13408 47.5843 8.43947C45.5714 7.64794 43.6239 6.85641 43.3621 4.70797C43.0511 2.188 45.3914 0.475704 48.0916 0.58878C49.5808 0.653395 51.0701 1.00878 52.2156 1.46108V4.54643H51.741C51.4628 2.86645 50.4482 1.28339 48.1243 1.13801C46.766 1.05724 45.5386 1.558 45.5386 3.01183C45.5386 4.46567 47.9934 5.06335 49.7772 5.75796C51.5774 6.46872 53.3448 7.43795 53.5576 9.78023Z" fill="#333333"/>
<path d="M14.8702 7.48641C14.8702 3.60953 18.0451 0.475708 21.9727 0.475708C25.9004 0.475708 29.0752 3.60953 29.0752 7.48641C29.0752 11.3633 25.9004 14.4971 21.9727 14.4971C18.0451 14.4971 14.8702 11.3471 14.8702 7.48641ZM21.9727 13.8994C24.7548 13.8671 25.7203 10.3618 25.7203 7.47026C25.7203 4.56259 24.5093 1.02493 21.9727 1.02493C19.3052 1.00878 18.2251 4.57875 18.2251 7.47026C18.2251 10.3618 19.1906 13.9317 21.9727 13.8994Z" fill="#333333"/>
<path d="M1.7618 13.0271C1.7618 13.4148 1.30358 13.6087 0.878085 13.6087H0.550781V14.1094H7.78418C10.3371 14.1094 13.0538 12.9464 13.0865 10.3618C13.1192 7.40565 10.0589 6.88873 9.0934 6.80796C10.599 6.56566 12.3828 5.32182 12.301 3.54491C12.2028 1.65493 10.1735 0.766479 8.25877 0.766479L0.632607 0.782633V1.2834H1.02537C1.31994 1.2834 1.77817 1.36417 1.77817 1.78416V13.0271H1.7618ZM4.85482 13.5602V7.16334H6.63862C8.65154 7.16334 9.69891 8.56871 9.78073 10.1679C9.89529 12.0741 8.45516 13.5602 6.63862 13.5602H4.85482ZM4.85482 6.64642V1.2834H6.36041C7.83328 1.2834 9.0443 2.20416 9.10976 3.86799C9.17522 5.45105 7.9642 6.64642 6.44224 6.64642H4.85482Z" fill="#333333"/>
</svg>
