<svg width="100" height="8" viewBox="0 0 100 8" fill="none" xmlns="http://www.w3.org/2000/svg">
<path fill-rule="evenodd" clip-rule="evenodd" d="M0.675049 7.14063H2.00156V0.706914H0.675049V0.438843C2.27792 0.438843 3.77025 0.438843 5.37312 0.438843C6.36801 0.438843 7.58398 0.492457 8.46833 0.814143C9.07631 1.08221 9.40794 1.61836 9.40794 2.1545C9.40794 2.69064 9.07631 2.95872 8.57887 3.33402C8.30251 3.49486 8.1367 3.54847 7.7498 3.6557C8.30251 3.70932 8.68941 3.81654 9.24213 4.13823C9.79484 4.51353 10.0712 5.04967 10.0712 5.5322C10.0712 6.12196 9.62903 6.71172 8.85523 6.92617C7.69453 7.35509 6.36801 7.35509 5.09677 7.35509H0.675049V7.14063ZM4.21242 7.14063H5.15204C5.98111 7.14063 6.5891 6.97979 7.08654 6.81895C7.52871 6.60449 7.91561 6.22919 7.91561 5.5322C7.91561 4.72799 7.69453 4.13823 6.75491 3.87016C6.31274 3.76293 4.15715 3.81654 4.15715 3.81654V7.14063H4.21242ZM4.21242 3.49486C5.20731 3.49486 6.31274 3.54847 6.69964 3.38763C7.30763 3.11956 7.52871 2.85149 7.52871 2.10089C7.52871 1.45751 7.30763 1.13583 6.92073 0.974986C6.47855 0.760529 5.70475 0.706914 4.98622 0.706914H4.21242V3.49486ZM38.536 7.14063H39.8625V0.706914H38.536V0.438843C40.1389 0.438843 41.6865 0.438843 43.2341 0.438843C44.229 0.438843 45.4449 0.492457 46.3293 0.814143C46.9925 1.08221 47.2689 1.61836 47.2689 2.1545C47.2689 2.69064 46.9373 2.95872 46.4398 3.33402C46.1635 3.49486 45.9977 3.54847 45.6108 3.6557C46.1635 3.70932 46.5504 3.81654 47.1584 4.13823C47.7111 4.51353 47.9322 5.04967 47.9322 5.5322C47.9322 6.12196 47.49 6.71172 46.7715 6.92617C45.6108 7.35509 44.229 7.35509 43.013 7.35509H38.536V7.14063ZM42.1287 7.14063H43.0683C43.8973 7.14063 44.5053 6.97979 45.0028 6.81895C45.4449 6.60449 45.8318 6.22919 45.8318 5.5322C45.8318 4.72799 45.666 4.13823 44.6711 3.87016C44.229 3.76293 42.1287 3.81654 42.1287 3.81654V7.14063ZM42.1287 3.49486C43.1235 3.49486 44.1737 3.54847 44.6159 3.38763C45.2239 3.11956 45.4449 2.85149 45.4449 2.10089C45.4449 1.45751 45.1686 1.13583 44.7817 0.921372C44.3395 0.706914 43.5657 0.6533 42.8472 0.6533H42.1287V3.49486ZM13.6638 5.63943V0.706914H12.1715V0.438843H17.1459V0.706914H15.7089V5.58582C15.7089 6.06834 15.93 6.39003 16.3721 6.6581C16.759 6.97979 17.2565 7.14063 18.1961 7.14063C19.3015 7.14063 20.1306 6.92617 20.5728 6.49726C21.0702 6.12196 21.2913 5.63943 21.2913 5.1569V0.706914H19.8543V0.438843H23.3364V0.706914H21.8993V5.21052C21.8993 5.9075 21.5677 6.49726 20.9597 6.92617C20.2412 7.35509 19.5226 7.56955 18.2514 7.56955C17.0354 7.56955 15.6536 7.4087 14.8798 7.08702C14.0507 6.76533 13.6638 6.2828 13.6638 5.63943ZM26.8185 7.14063V0.706914H25.3814V0.438843H30.9085C32.1245 0.492457 32.7325 0.438843 33.5616 0.760529C34.1143 0.974986 34.5012 1.45751 34.5012 2.10089C34.5012 3.44124 33.2299 3.60209 32.3456 3.76293C33.1194 3.81654 33.5616 3.92377 34.059 4.13823C34.5565 4.4063 34.7775 4.83522 34.8881 5.04967C34.9986 5.42497 34.9434 5.85389 34.9434 6.22919C34.9986 6.92617 35.3855 7.19425 35.9935 7.14063C36.1593 7.08702 36.3251 7.0334 36.4357 6.92617L36.6015 7.24786C36.2146 7.51593 35.7724 7.62316 35.3303 7.56955C34.6117 7.56955 34.0037 7.46232 33.5616 7.19425C33.1194 6.92617 32.843 6.55087 32.7325 6.01473C32.7325 5.58582 32.7325 5.1569 32.622 4.72799C32.3456 4.031 31.406 3.92377 30.798 3.92377H29.0293V7.19425H30.5216V7.4087H25.2709V7.14063H26.8185ZM28.974 3.54847H30.9085C31.8482 3.54847 32.4009 3.17317 32.4009 2.04727C32.4009 1.13583 31.6271 0.6533 30.798 0.6533H28.974V3.54847ZM77.6682 7.14063V0.706914H76.2312V0.438843H81.7583C82.9743 0.492457 83.5823 0.438843 84.3561 0.760529C84.964 0.974986 85.3509 1.45751 85.3509 2.10089C85.3509 3.44124 84.0797 3.60209 83.1401 3.76293C83.9692 3.81654 84.3561 3.92377 84.8535 4.13823C85.4062 4.4063 85.6273 4.83522 85.6826 5.04967C85.8484 5.42497 85.7931 5.85389 85.7931 6.22919C85.8484 6.92617 86.2353 7.19425 86.8433 7.14063C87.0091 7.08702 87.1749 7.0334 87.2854 6.92617L87.4513 7.24786C87.1196 7.51593 86.6222 7.62316 86.18 7.56955C85.4615 7.56955 84.9088 7.46232 84.4666 7.19425C84.0244 6.92617 83.6928 6.55087 83.6375 6.01473C83.5823 5.58582 83.5823 5.1569 83.4164 4.72799C83.1954 4.031 82.2005 3.92377 81.5925 3.92377H79.8791V7.19425H81.3714V7.4087H76.1206V7.14063H77.6682ZM79.8238 3.54847H81.703C82.6426 3.54847 83.2506 3.17317 83.2506 2.04727C83.2506 1.13583 82.4768 0.6533 81.6478 0.6533H79.8238V3.54847ZM64.5136 7.14063V0.706914H63.0765V0.438843H68.6037C69.8197 0.492457 70.4276 0.438843 71.2567 0.760529C71.8094 0.974986 72.2516 1.45751 72.2516 2.10089C72.2516 3.44124 70.9804 3.60209 70.0407 3.76293C70.8145 3.81654 71.2567 3.92377 71.7542 4.13823C72.2516 4.4063 72.4727 4.83522 72.5832 5.04967C72.7491 5.42497 72.6385 5.85389 72.6385 6.22919C72.6938 6.92617 73.0807 7.19425 73.6887 7.14063C73.8545 7.08702 74.0203 7.0334 74.1308 6.92617L74.2966 7.24786C73.965 7.51593 73.4676 7.62316 73.0254 7.56955C72.3069 7.56955 71.6989 7.46232 71.2567 7.19425C70.8145 6.92617 70.5382 6.55087 70.4276 6.01473C70.3724 5.58582 70.3724 5.1569 70.2618 4.72799C69.9855 4.031 69.0459 3.92377 68.4379 3.92377H66.6692V7.19425H68.2168V7.4087H62.966V7.14063H64.5136ZM66.7245 3.54847H68.659C69.5986 3.54847 70.1513 3.17317 70.1513 2.04727C70.1513 1.13583 69.3775 0.6533 68.5484 0.6533H66.7245V3.54847ZM50.4194 7.14063H51.8564V0.706914H50.4194V0.438843H59.5392V2.5298H59.2075C59.0417 1.99366 58.6548 1.24306 58.2127 0.974986C57.881 0.814143 57.3836 0.706914 56.5545 0.706914H54.0673V3.6557C54.62 3.6557 55.3938 3.70932 55.8913 3.49486C56.2782 3.33402 56.5545 2.9051 56.6098 2.47619H56.9967V5.26413H56.6098C56.5545 4.72799 56.2229 4.4063 55.836 4.24546C55.4491 4.08462 54.7306 4.08462 54.012 4.08462V7.19425H56.7756C57.9916 7.19425 58.3785 7.0334 58.8759 6.76533C59.3181 6.44365 59.705 5.74666 59.8155 5.04967H60.1472V7.4087H50.4194V7.14063ZM91.0992 7.14063H92.8126V4.13823L89.441 0.706914H88.004V0.438843H93.5311V0.706914H91.873L94.6918 3.76293L97.6212 0.706914H95.6867V0.438843H99.7768V0.706914H98.2292L95.0234 4.13823V7.14063H96.7369V7.4087H91.2097V7.14063H91.0992Z" fill="#333333"/>
</svg>
