<svg width="74" height="21" viewBox="0 0 74 21" fill="none" xmlns="http://www.w3.org/2000/svg">
<path fill-rule="evenodd" clip-rule="evenodd" d="M51.1281 8.71947C50.7554 8.71947 50.4656 8.51864 50.4656 8.15715C50.4656 7.59483 51.0453 6.87185 51.625 6.87185C51.9976 6.87185 52.1633 7.19318 52.1633 7.5145C52.2047 8.11699 51.7906 8.71947 51.1281 8.71947Z" fill="#333333"/>
<path fill-rule="evenodd" clip-rule="evenodd" d="M14.2344 16.7927C11.957 18.3592 8.76863 20.2068 5.91154 20.2068C2.97163 20.2068 0.859863 18.2789 0.859863 15.4272C0.859863 13.8607 1.48097 12.3344 2.1849 10.9687C3.55133 8.3178 5.58027 5.90787 7.94048 4.0201C9.76239 2.57415 11.957 1.44949 14.2758 0.887163C14.8969 0.726491 15.5594 0.646179 16.1805 0.646179C17.0086 0.646179 17.8782 0.766696 18.6235 1.12815L19.7001 1.69048C19.9071 1.81099 20.1556 1.81099 20.3626 1.81099C21.1494 1.81099 21.8119 1.36918 22.433 0.927319L22.6814 1.20851C21.2322 2.13229 20.6111 3.13643 20.0314 4.7029L19.7829 4.54223C19.9071 4.18077 19.99 3.85943 19.99 3.49793C19.99 1.73063 17.7126 0.887163 16.1391 0.887163C14.9797 0.887163 13.8203 1.24866 12.7851 1.73063C9.05847 3.49793 6.07716 6.71118 4.25525 10.3261C3.3857 12.0532 2.72318 13.9811 2.72318 15.9493C2.72318 18.2387 4.04822 19.8052 6.44982 19.8052C9.02501 19.8052 11.9521 17.9467 14.0912 16.5886L14.2758 16.4714C14.607 15.7083 14.9797 15.0255 15.518 14.3828C17.1329 12.3344 19.7001 10.2458 22.4744 10.2458C23.9236 10.2458 24.6275 10.9286 24.669 12.2942L25.6213 10.7277H27.3604L23.2611 17.6764L23.2156 17.764C23.0599 18.0627 22.8885 18.3917 22.8885 18.7207C22.8885 19.1224 23.3025 19.3634 23.7166 19.3634C24.7045 19.3634 25.7679 18.5585 26.5108 17.9962L26.6151 17.9174C28.5612 16.4714 30.3417 14.7845 31.5011 12.6557L32.6191 10.6876H34.4824L33.9856 11.5712C34.8965 11.0491 35.9731 10.6073 37.0497 10.6073C37.6708 10.6073 38.2505 10.8884 38.2505 11.5311C38.2505 12.0131 38.0021 12.3745 37.6294 12.6959C37.7122 12.736 37.7536 12.7762 37.8364 12.7762C38.1494 12.7762 38.4253 12.5969 38.6644 12.4417L38.706 12.4147C40.2794 11.4507 41.7287 10.1253 42.6397 8.59899L43.9233 6.4702H45.6624L43.4678 10.2056H46.035L45.9108 10.5269H43.3436L39.0372 17.7567C38.8716 18.0379 38.706 18.3592 38.706 18.6806C38.706 19.0822 39.2028 19.283 39.5755 19.283C40.3442 19.283 41.0339 18.8228 41.6831 18.3896L41.7287 18.3592C42.8881 17.5559 43.9647 16.5518 44.9584 15.5878C45.7038 14.8648 46.4077 14.1418 47.0288 13.3385C47.3601 12.8967 47.6499 12.4549 47.9398 12.0131L48.7265 10.7679H50.4242L46.2007 17.9977C46.035 18.2387 45.9522 18.56 45.9522 18.8412C45.9522 19.1625 46.2007 19.4437 46.5319 19.4437C47.5257 19.4437 48.6437 18.6404 49.389 17.9977L52.4531 15.3869C54.1508 13.459 56.9251 10.4064 59.7822 10.4064C60.6931 10.4064 61.7283 10.8483 61.7283 11.8524C61.7283 12.6156 61.19 13.3385 60.6931 13.8607C59.5752 15.0255 57.9189 15.7083 56.3868 16.1099C55.6001 16.3108 54.8133 16.3509 54.0266 16.3509C53.7782 16.9133 53.5297 17.4756 53.5297 18.0781C53.5297 18.9215 54.3164 19.6445 55.186 19.6445C57.2978 19.6445 60.4033 17.5157 61.9354 16.3509C63.219 15.3468 64.4198 14.182 65.4964 12.977C65.5583 12.905 65.6211 12.833 65.6841 12.7606C66.0429 12.3492 66.4092 11.929 66.6558 11.4507L67.0699 10.7277H68.8089L67.5667 13.0574C68.9332 11.8524 70.5895 10.6474 72.4942 10.6474C73.1153 10.6474 73.6122 11.0089 73.6122 11.6516C73.6122 12.2139 73.0739 12.8967 72.4528 12.8967C72.1215 12.8967 71.7903 12.5754 71.7903 12.2541C71.7903 11.7319 72.37 11.3704 72.8669 11.3704C72.9496 11.3704 73.0739 11.3704 73.1567 11.4106C72.9911 11.0892 72.7426 10.9286 72.37 10.9286C71.459 10.9286 70.5895 11.3704 69.8441 11.772C68.1464 12.736 66.8628 14.2623 65.869 15.869L63.3846 19.9658H61.6041L65.6206 13.2582C64.751 14.2623 63.8401 15.1861 62.8049 16.0296C61.6455 16.9936 60.4033 17.8371 59.1197 18.6002C57.7946 19.3634 56.2626 20.0864 54.6891 20.0864C53.157 20.0864 51.7492 19.2429 51.7492 17.6363C51.7492 17.1889 51.8563 16.7761 51.9709 16.3337L51.9977 16.2305C51.8658 16.3483 51.7287 16.4723 51.5868 16.6006C50.0356 18.0039 47.9111 19.9257 45.7866 19.9257C44.917 19.9257 44.2131 19.6445 44.2131 18.7207C44.2131 18.2052 44.5162 17.7191 44.7853 17.2876C44.8307 17.2148 44.8752 17.1435 44.917 17.0739L46.3249 14.664C44.917 16.1501 43.4678 17.5961 41.7701 18.7207C40.8177 19.3634 39.7412 19.9658 38.5817 19.9658C37.8364 19.9658 37.0497 19.524 37.0497 18.7207C37.0497 18.1306 37.3899 17.5705 37.6961 17.0663C37.7223 17.0231 37.7483 16.9802 37.7739 16.9378C37.7951 16.9026 37.816 16.8676 37.8364 16.8329L41.4388 10.6876C40.7763 11.2901 40.1138 11.8524 39.4099 12.3745C39.3584 12.4111 39.3063 12.4486 39.2537 12.4865L39.249 12.4898C38.6677 12.9083 38.0142 13.3787 37.2567 13.3787C36.7598 13.3787 36.3458 13.0975 36.3458 12.5754C36.3458 12.0532 36.8012 11.6516 37.3395 11.6516C37.5052 11.6516 37.6294 11.6917 37.7536 11.772C37.795 11.6917 37.8364 11.5712 37.8364 11.4507C37.8364 11.0892 37.3809 10.8884 37.0911 10.8884C36.1801 10.8884 35.2278 11.3302 34.4824 11.7319C33.7371 12.1737 33.2402 12.8967 32.8262 13.6197L29.0581 19.9658H27.2362L29.9277 15.4272C28.1472 17.2748 25.2072 20.006 22.4744 20.006C21.729 20.006 21.0665 19.6445 21.0665 18.8814C21.0665 18.3994 21.2736 17.9576 21.4806 17.5157C20.197 18.8412 18.4165 20.2068 16.4289 20.2068C15.1453 20.2068 14.0273 19.3232 14.0273 18.0379C13.9859 17.5961 14.1101 17.1944 14.2344 16.7927ZM24.3791 11.9729C24.3791 11.0491 23.6338 10.4868 22.7228 10.4868C21.6877 10.4868 20.8595 10.9687 20.0728 11.5311C18.4579 12.6557 17.0915 14.2623 16.2219 15.9894C15.8907 16.6321 15.6008 17.2748 15.6008 18.0379C15.6008 18.8412 16.0977 19.6043 17.0086 19.6043C19.1204 19.6043 21.3564 17.3149 22.5986 15.7484C23.3439 14.7443 24.3791 13.218 24.3791 11.9729ZM54.6477 15.9894H54.1508L54.2673 15.8008C55.3087 14.1116 57.4197 10.6876 59.4924 10.6876C59.9892 10.6876 60.5275 10.8884 60.5275 11.4106C60.5275 12.3745 59.5752 13.5795 58.8712 14.2222C57.7946 15.2263 56.1798 15.9894 54.6477 15.9894Z" fill="#333333"/>
</svg>
