<svg width="96" height="16" viewBox="0 0 96 16" fill="none" xmlns="http://www.w3.org/2000/svg">
<path fill-rule="evenodd" clip-rule="evenodd" d="M92.4116 1.31842H95.733C95.3771 1.60608 95.1399 1.95127 95.1399 2.41152V13.5726C95.1399 14.0329 95.3771 14.378 95.733 14.6657H92.4116C92.7675 14.378 93.0047 14.0329 93.0047 13.5726V2.41152C93.0047 1.89373 92.7675 1.54855 92.4116 1.31842Z" fill="#333333"/>
<path fill-rule="evenodd" clip-rule="evenodd" d="M14.8347 6.09434C14.3009 4.94371 13.7078 3.85062 12.6995 2.98764C11.632 2.12467 10.2678 1.54936 8.84441 1.54936C5.10791 1.54936 3.44724 4.82865 3.44724 8.05041C3.44724 11.1571 5.0486 14.3213 8.66648 14.3213C10.1492 14.3213 11.5727 13.6885 12.4623 12.5954V10.064C12.4623 9.37363 12.2251 8.91338 11.6913 8.51066H15.5464C15.1312 8.97091 14.894 9.43116 14.894 10.064V12.5954C13.1147 14.2063 10.9796 15.1268 8.54786 15.1268C4.21826 15.1843 0.718994 12.1351 0.718994 7.87781C0.718994 3.67802 4.15895 0.801453 8.36994 0.801453C10.9796 0.801453 13.1147 1.72195 14.8347 3.62049V6.09434Z" fill="#333333"/>
<path fill-rule="evenodd" clip-rule="evenodd" d="M24.2056 1.31842H27.8235C27.349 1.66361 27.171 2.06633 27.171 2.64164V10.8111C27.171 13.0548 29.8993 14.1479 31.8565 14.1479C33.8137 14.1479 36.364 13.0548 36.364 10.8686V2.64164C36.364 2.06633 36.2454 1.72114 35.8303 1.31842H37.7875C37.3723 1.72114 37.2537 2.12386 37.2537 2.64164V10.8686C37.2537 13.8027 33.6951 14.9534 31.2041 14.9534C28.6538 14.9534 24.9173 13.8603 24.9173 10.8111V2.64164C24.858 2.06633 24.6207 1.66361 24.2056 1.31842Z" fill="#333333"/>
<path fill-rule="evenodd" clip-rule="evenodd" d="M60.3252 6.15096C59.8507 5.00033 59.2576 3.96476 58.3086 3.10179C57.2411 2.18129 55.9363 1.60598 54.5128 1.60598C50.7763 1.60598 48.8784 4.7702 48.8784 7.99196C48.8784 11.2712 50.8356 14.3779 54.5128 14.3779C57.2411 14.3779 59.1983 12.5369 60.3252 10.2932V12.7095C58.6645 14.3204 56.4701 15.1834 54.0384 15.1834C49.5901 15.1834 46.2688 12.4219 46.2688 7.99196C46.3281 3.61957 49.5308 0.800537 53.8604 0.800537C56.2921 0.800537 58.6052 1.60598 60.3252 3.21685V6.15096Z" fill="#333333"/>
<path fill-rule="evenodd" clip-rule="evenodd" d="M83.5746 6.15116C83.1001 5.00054 82.507 3.96497 81.5581 3.102C80.4905 2.1815 79.1857 1.60618 77.7622 1.60618C74.0257 1.60618 72.1871 4.77041 72.1871 7.99217C72.1871 11.2715 74.1444 14.3781 77.8216 14.3781C80.5498 14.3781 82.507 12.5371 83.6339 10.2934V12.7097C81.9139 14.3206 79.7788 15.1836 77.3471 15.1836C72.8989 15.1836 69.5775 12.4221 69.5775 7.99217C69.5775 3.67731 72.7802 0.858276 77.1098 0.858276C79.5415 0.858276 81.8546 1.66372 83.5746 3.27459V6.15116Z" fill="#333333"/>
</svg>
