<svg width="25" height="24" viewBox="0 0 25 24" fill="none" xmlns="http://www.w3.org/2000/svg">
<path d="M8.17994 1.43994C4.73953 1.43994 1.93994 4.23953 1.93994 7.67994V16.3199C1.93994 19.7603 4.73953 22.5599 8.17994 22.5599H16.8199C20.2603 22.5599 23.0599 19.7603 23.0599 16.3199V7.67994C23.0599 4.23953 20.2603 1.43994 16.8199 1.43994H8.17994ZM8.17994 2.39994H16.8199C19.7415 2.39994 22.0999 4.75843 22.0999 7.67994V16.3199C22.0999 19.2415 19.7415 21.5999 16.8199 21.5999H8.17994C5.25843 21.5999 2.89994 19.2415 2.89994 16.3199V7.67994C2.89994 4.75843 5.25843 2.39994 8.17994 2.39994ZM18.2599 5.27994C18.0053 5.27994 17.7612 5.38108 17.5811 5.56112C17.4011 5.74115 17.2999 5.98533 17.2999 6.23994C17.2999 6.49455 17.4011 6.73873 17.5811 6.91876C17.7612 7.0988 18.0053 7.19994 18.2599 7.19994C18.5145 7.19994 18.7587 7.0988 18.9388 6.91876C19.1188 6.73873 19.2199 6.49455 19.2199 6.23994C19.2199 5.98533 19.1188 5.74115 18.9388 5.56112C18.7587 5.38108 18.5145 5.27994 18.2599 5.27994ZM12.4999 6.71994C9.58956 6.71994 7.21994 9.08956 7.21994 11.9999C7.21994 14.9103 9.58956 17.2799 12.4999 17.2799C15.4103 17.2799 17.7799 14.9103 17.7799 11.9999C17.7799 9.08956 15.4103 6.71994 12.4999 6.71994ZM12.4999 7.67994C14.8915 7.67994 16.8199 9.60839 16.8199 11.9999C16.8199 14.3915 14.8915 16.3199 12.4999 16.3199C10.1084 16.3199 8.17994 14.3915 8.17994 11.9999C8.17994 9.60839 10.1084 7.67994 12.4999 7.67994Z" fill="#333333"/>
</svg>
