<svg width="71" height="12" viewBox="0 0 71 12" fill="none" xmlns="http://www.w3.org/2000/svg">
<path fill-rule="evenodd" clip-rule="evenodd" d="M0.483398 0.727376L1.53568 1.83009V9.942L0.759623 11.0067L5.54751 11.0194L4.67938 10.0434L4.58731 7.12818L9.2042 7.15353C10.6248 6.70991 12.0585 5.78464 12.1374 3.90877C12.1111 2.09626 10.9273 0.942849 9.54619 0.702026L0.483398 0.727376ZM4.42946 1.24705V6.45641L7.98092 6.48176C8.78329 5.87337 9.4015 5.41707 9.3752 3.95947C9.36204 2.7807 9.09897 1.74136 7.902 1.24705H4.42946V1.24705Z" fill="#333333"/>
<path fill-rule="evenodd" clip-rule="evenodd" d="M14.3473 0.676554L15.3996 1.77927V9.89118L14.6235 10.9559L19.4114 10.9685L18.5433 9.99258L18.4512 7.07736H18.4644L23.4101 11.0066L27.514 10.9812L23.7652 7.9646H20.6347L19.5298 7.09003L23.0549 7.10271C24.4492 6.67176 25.8961 5.7465 25.9619 3.87062C25.9356 2.05811 24.7517 0.892027 23.3706 0.663879L14.3473 0.676554ZM18.2934 1.18355V6.39292L21.8448 6.41827C22.6472 5.80987 23.2654 5.35358 23.2391 3.89597C23.2259 2.71721 22.9629 1.67787 21.7659 1.18355H18.2934V1.18355Z" fill="#333333"/>
<path fill-rule="evenodd" clip-rule="evenodd" d="M31.4994 0.663879H35.6296L41.0094 9.94188C41.2462 10.6643 41.9433 10.5756 42.4037 10.8798H37.1949L37.971 10.6517L37.9183 9.95455L36.5767 7.95192L31.9993 7.97727L31.0259 9.90385C30.9996 10.1193 30.7365 10.2968 30.9338 10.5629L31.3021 10.8925L29.0529 10.8418L30.0262 10.5629L33.7224 3.3256V2.83128L32.1702 0.917377L31.4994 0.663879ZM32.3018 7.33086L34.1959 3.98469L36.1689 7.30551L32.3018 7.33086Z" fill="#333333"/>
<path fill-rule="evenodd" clip-rule="evenodd" d="M59.4507 0.676575H63.5809L68.9607 9.96725C69.1975 10.6897 69.8946 10.601 70.355 10.9052H65.1462L65.9223 10.677L65.8696 9.97992L64.528 7.98997L59.9505 8.01532L58.9772 9.9419C58.9509 10.1574 58.6878 10.3348 58.8851 10.601L59.2534 10.9305L57.0042 10.8798L57.9775 10.601L61.6737 3.36365V2.86933L60.1084 0.930072L59.4507 0.676575ZM60.2531 7.34355L62.1472 3.99739L64.1202 7.3182L60.2531 7.34355Z" fill="#333333"/>
<path fill-rule="evenodd" clip-rule="evenodd" d="M43.8375 0.562439L51.2035 0.600464C53.5711 1.12013 55.0837 2.46367 55.5441 4.80852L55.531 6.64637C55.0969 8.73772 53.6763 10.1827 51.1903 10.9178L43.8112 10.9305V10.715C44.9292 10.639 45.0213 10.5122 45.0213 9.90381V1.55108C45.0081 1.09478 44.9161 0.803261 43.8243 0.777912L43.8375 0.562439ZM48.0203 1.27223L48.0071 10.3094C48.9805 10.3094 49.8223 10.3981 50.2959 10.17C51.3744 9.71369 51.8743 9.0039 51.9269 8.3448L51.9006 3.02136C51.9006 2.17215 50.9009 1.56375 50.3353 1.41165C49.9144 1.25956 49.0989 1.25956 48.0203 1.27223Z" fill="#333333"/>
</svg>
