<svg width="101" height="13" viewBox="0 0 101 13" fill="none" xmlns="http://www.w3.org/2000/svg">
<path fill-rule="evenodd" clip-rule="evenodd" d="M23.2532 3.30078L23.648 5.59851H23.4224C23.084 4.17611 21.7868 3.57432 20.3205 3.57432C20.0949 3.57432 19.8693 3.57432 19.5873 3.68374V7.62269H20.1513C21.3356 7.62269 22.0124 7.18503 22.0124 6.255H22.238V9.48276H22.0688C21.956 8.77156 21.7304 7.89623 20.2077 7.89623H19.6437V11.5617C19.6437 12.1634 19.9257 12.4917 20.828 12.4917V12.7105H16.8237V12.4917C17.7261 12.4917 18.0081 12.1634 18.0081 11.5617V4.44964C18.0081 3.90257 17.6697 3.51961 16.7673 3.51961V3.30078H23.2532Z" fill="#333333"/>
<path fill-rule="evenodd" clip-rule="evenodd" d="M31.3183 3.30078L31.713 5.59851H31.4874C31.1491 4.17611 29.8519 3.57432 28.3855 3.57432C28.1599 3.57432 27.9343 3.57432 27.6523 3.68374V7.62269H28.2163C29.4007 7.62269 30.0775 7.18503 30.0775 6.255H30.3031V9.48276H30.1339C30.0211 8.77156 29.7955 7.89623 28.2727 7.89623H27.7087V11.5617C27.7087 12.1634 27.9907 12.4917 28.8931 12.4917V12.7105H24.8888V12.4917C25.7912 12.4917 26.0732 12.1634 26.0732 11.5617V4.44964C26.0732 3.90257 25.7348 3.51961 24.8324 3.51961V3.30078H31.3183Z" fill="#333333"/>
<path fill-rule="evenodd" clip-rule="evenodd" d="M14.8498 3.30078V3.51961C14.173 3.51961 13.7782 3.84786 13.7782 4.44964V11.5069C13.7782 12.1634 14.2294 12.437 14.8498 12.437V12.6558H11.071V12.437C11.7478 12.3823 12.1426 12.1087 12.1426 11.5069V4.44964C12.1426 3.84786 11.7478 3.51961 11.071 3.51961V3.30078H14.8498Z" fill="#333333"/>
<path fill-rule="evenodd" clip-rule="evenodd" d="M9.94311 0.729492L10.3379 3.5743H10.1687C9.60472 2.09719 8.53314 1.11245 6.55919 1.11245V11.124C6.55919 12.2181 7.17957 12.5464 7.85636 12.5464V12.7652H3.34446V12.5464C3.96484 12.5464 4.75443 12.2181 4.75443 11.124V1.05774C2.72407 1.05774 1.76529 1.98777 1.03211 3.5743H0.862915L1.20131 0.729492H9.94311V0.729492Z" fill="#333333"/>
<path fill-rule="evenodd" clip-rule="evenodd" d="M65.0446 9.6469C65.0446 11.124 66.1162 12.2182 67.6954 12.2182C68.3721 12.2182 69.1617 11.8899 69.7257 11.2881L66.5674 7.40388C65.7778 7.568 65.0446 8.38862 65.0446 9.6469ZM69.3309 3.79317C69.3309 2.5896 68.7669 1.98781 67.6954 1.98781C66.6238 1.98781 66.0034 2.5896 66.0034 3.57434C66.0034 4.7232 67.5826 6.25502 67.5826 6.25502C68.8233 5.59852 69.3309 4.88732 69.3309 3.79317ZM67.8082 6.52856L70.5153 9.81102C70.5153 9.81102 70.7973 9.26394 70.8537 8.77157C70.8537 8.16979 70.5153 7.95096 70.0077 7.84154V7.67742H72.9404C72.9404 7.67742 72.9968 7.84154 72.9404 7.84154C72.3765 7.95096 71.9817 8.11508 71.5869 8.38862C71.2485 8.77157 71.0793 9.09982 70.7409 9.97514L71.9817 11.4523C72.5456 12.054 73.2224 12.3823 74.012 12.437V12.6558H70.7973V12.437L69.8949 11.3975C69.1617 12.1087 67.921 12.7652 66.7366 12.7652C64.819 12.7652 63.5782 11.7258 63.5782 10.3034C63.5782 8.71687 65.101 7.73213 66.2854 6.96622C66.2854 6.96622 64.9882 5.54382 64.9882 4.23083C64.9882 2.75372 66.1726 1.60486 67.7518 1.60486C69.1617 1.60486 70.2897 2.5896 70.2897 3.79317C70.2897 5.27028 68.6541 5.87206 67.8082 6.52856Z" fill="#333333"/>
<path fill-rule="evenodd" clip-rule="evenodd" d="M87.3222 0.510681L87.435 4.28552H87.2094C86.8146 2.15191 85.3482 0.948343 83.5434 0.948343C81.3439 0.948343 79.8211 3.41019 79.8211 6.74737C79.8211 10.8504 81.5131 12.5464 83.8254 12.5464C86.2506 12.5464 87.2094 10.3581 87.435 8.82626H87.6605V10.4675C87.2658 11.1787 86.025 12.7652 83.487 12.7652C80.2723 12.7652 77.7344 10.194 77.7344 6.74737C77.7344 3.62902 80.5543 0.729512 83.487 0.729512C85.179 0.729512 85.6302 1.44071 86.307 1.44071C86.8146 1.44071 87.0402 1.11247 87.0402 0.510681H87.3222V0.510681Z" fill="#333333"/>
<path fill-rule="evenodd" clip-rule="evenodd" d="M99.1095 10.9599C99.6171 10.9599 100.012 11.3429 100.012 11.8352C100.012 12.3276 99.6171 12.6558 99.1095 12.6558C98.6019 12.6558 98.2072 12.3276 98.2072 11.8352C98.2072 11.3429 98.6019 10.9599 99.1095 10.9599Z" fill="#333333"/>
<path fill-rule="evenodd" clip-rule="evenodd" d="M90.2548 7.84154C90.2548 10.7411 91.4392 12.5464 93.244 12.5464C95.1051 12.5464 96.2895 10.9052 96.2895 7.84154C96.2895 5.05145 95.2743 3.51963 93.3004 3.46492C91.27 3.41022 90.2548 5.27028 90.2548 7.84154ZM93.244 3.24609C96.0075 3.24609 98.3199 5.27028 98.3199 8.00567C98.3199 10.6316 96.1203 12.7105 93.3004 12.7105C90.5368 12.7105 88.2245 10.5769 88.2245 8.00567C88.2245 5.4344 90.4804 3.24609 93.244 3.24609Z" fill="#333333"/>
<path fill-rule="evenodd" clip-rule="evenodd" d="M35.097 5.27026L36.7325 9.15451H33.4614L35.097 5.27026ZM40.5113 12.4917C40.1729 12.4917 39.8909 12.1634 39.7217 11.9446C39.6089 11.7258 35.8302 2.80841 35.8302 2.80841L32.3898 10.9599C31.995 11.9993 31.4311 12.4917 30.6979 12.4917V12.7105H33.5178V12.4917C32.9538 12.437 32.559 12.1634 32.559 11.7805C32.559 11.4522 33.4614 9.37334 33.4614 9.37334H36.8453C36.8453 9.37334 37.8041 11.3428 37.8041 11.7805C37.8605 12.1087 37.2965 12.4917 36.7889 12.4917V12.7105H40.5113V12.4917V12.4917Z" fill="#333333"/>
<path fill-rule="evenodd" clip-rule="evenodd" d="M42.034 11.0693C42.034 11.9446 41.47 12.3276 40.8496 12.4917V12.7105H43.6696V12.4917C42.88 12.3276 42.4288 11.7805 42.4288 11.0693V4.94201L49.0274 12.8746V5.21555C49.0274 4.1214 49.6478 3.4649 50.381 3.4649V3.30078H47.2227V3.4649C48.1251 3.73844 48.7454 4.23081 48.7454 5.27026V9.97513L43.2184 3.30078H40.624V3.4649C41.752 3.51961 42.034 4.39494 42.034 4.61377V11.0693Z" fill="#333333"/>
<path fill-rule="evenodd" clip-rule="evenodd" d="M50.7194 3.51961C51.1142 3.51961 51.2269 3.51961 51.5089 4.06669C51.5089 4.06669 54.4981 8.71685 54.4981 8.77156V11.5617C54.4981 12.1634 53.9341 12.4917 53.1445 12.5464V12.7105H57.318V12.5464C56.5848 12.4917 56.0772 12.1634 56.0772 11.5617V8.27919C56.0772 8.27919 57.9948 4.94201 58.164 4.61377C58.6152 3.90257 59.2356 3.4649 60.0251 3.4102V3.30078H56.6412L56.6976 3.4102C57.7692 3.4102 58.0512 4.39494 57.6564 4.99672L55.8516 8.16977L53.7085 4.50435C53.3701 3.95727 53.8213 3.4102 54.6109 3.4102V3.30078H50.7194V3.51961V3.51961Z" fill="#333333"/>
</svg>
